<?xml version="1.0" encoding="UTF-8"?>
<svg width="984px" height="984px" viewBox="0 0 984 984" version="1.1" xmlns="http://www.w3.org/2000/svg" xmlns:xlink="http://www.w3.org/1999/xlink">
    <!-- Generator: Sketch 54.1 (76490) - https://sketchapp.com -->
    <title>logan</title>
    <desc>Created with Sketch.</desc>
    <g id="logan" stroke="none" stroke-width="1" fill="none" fill-rule="evenodd">
        <path d="M168.5,0 L815.5,0 C908.55998,-1.77635684e-14 984,75.4400197 984,168.5 L984,815.5 C984,908.55998 908.55998,984 815.5,984 L168.5,984 C75.4400197,984 2.48689958e-14,908.55998 0,815.5 L0,168.5 C-1.0658141e-14,75.4400197 75.4400197,3.19744231e-14 168.5,0 Z M168.5,84 C121.831939,84 84,121.831939 84,168.5 L84,815.5 C84,862.168061 121.831939,900 168.5,900 L815.5,900 C862.168061,900 900,862.168061 900,815.5 L900,168.5 C900,121.831939 862.168061,84 815.5,84 L168.5,84 Z M179.872839,406.289849 L179.868418,406.294271 L179.863995,406.289849 C172.054731,398.478142 172.056711,385.814842 179.868418,378.005578 L258.907549,299 L179.868418,219.994422 L179.863995,219.99 C172.054731,212.178293 172.056711,199.514994 179.868418,191.705729 L203.724178,167.875113 C211.534158,160.067576 224.194047,160.067576 232.004027,167.875113 L332.145668,267.976601 C349.284777,285.110351 349.284777,312.889649 332.145668,330.023399 L232.004027,430.124887 C224.194047,437.932424 211.534158,437.932424 203.724178,430.124887 L179.872839,406.289849 Z M552.553817,363.14279 C552.563372,363.142722 552.572927,363.14266 552.582482,363.142606 C563.627998,363.07969 572.633162,371.982846 572.696078,383.028362 L572.886243,416.413565 C572.949096,427.447888 564.063374,436.448309 553.029153,436.526977 L366.446183,437.85721 C366.436628,437.857278 366.427073,437.85734 366.417518,437.857394 C355.372002,437.92031 346.366838,429.017154 346.303922,417.971638 L346.113757,384.586435 C346.050904,373.552112 354.936626,364.551691 365.970847,364.473023 L552.553817,363.14279 Z M495,608 L535,608 C546.045695,608 555,616.954305 555,628 L555,807 C555,818.045695 546.045695,827 535,827 L495,827 C483.954305,827 475,818.045695 475,807 L475,628 C475,616.954305 483.954305,608 495,608 Z M583.287232,608.606404 C609.592487,590.296988 624.944971,571.93708 629.344682,553.52668 C633.978241,534.137758 636.666969,509.159578 637.410866,478.592139 C682.708397,478.898933 705.357163,495.197996 705.357163,527.489328 L705.357163,606.525439 C705.357164,609.286862 707.59574,611.525437 710.357163,611.525437 L787.533332,611.525437 C809.624721,611.525437 827.533332,629.434047 827.533332,651.525437 C827.533332,653.236095 827.423593,654.944992 827.204793,656.6416 L808.886398,798.685069 C806.828319,814.643713 793.240034,826.592139 777.149229,826.592139 L611,826.592139 C593.326888,826.592139 579,812.265251 579,794.592139 L579,788.92932 L579.000003,616.813975 C579.000003,613.541421 580.601259,610.475939 583.287232,608.606404 Z" id="Shape" fill="#EF5722" fill-rule="nonzero"></path>
    </g>
</svg>